<svg width="115" height="25" viewBox="0 0 115 25" fill="none" xmlns="http://www.w3.org/2000/svg">
<path d="M28.4329 18.659C28.4329 16.9644 28.9587 15.7217 30.0105 14.9308C31.0725 14.14 32.4697 13.7446 34.2019 13.7446C34.7381 13.7446 35.3104 13.7703 35.9187 13.8217C36.5271 13.8627 37.12 13.9346 37.6974 14.0373V12.4044C37.6974 11.2233 37.4345 10.3914 36.9086 9.90868C36.393 9.41571 35.7022 9.16922 34.8361 9.16922C33.9802 9.16922 33.1244 9.2976 32.2686 9.55435C31.4128 9.80084 30.5724 10.1089 29.7475 10.4787C29.5516 10.3144 29.3763 10.0679 29.2217 9.73922C29.067 9.4003 28.9897 9.08706 28.9897 8.79949C29.7424 8.47084 30.6549 8.14733 31.7273 7.82895C32.7996 7.51057 33.8823 7.35138 34.9753 7.35138C36.5941 7.35138 37.7902 7.793 38.5635 8.67625C39.3369 9.55949 39.7235 10.8227 39.7235 12.466V18.813C39.7235 19.4806 39.7699 20.066 39.8627 20.5692C39.9555 21.0725 40.1978 21.5089 40.5897 21.8787C40.5072 22.0841 40.3731 22.2946 40.1875 22.5103C40.0122 22.7157 39.806 22.8698 39.5689 22.9725C39.043 22.7465 38.6357 22.4487 38.347 22.0789C38.0686 21.6989 37.883 21.2522 37.7902 20.7387C37.2128 21.3035 36.5065 21.8427 35.6713 22.3562C34.8464 22.8698 33.9132 23.1265 32.8718 23.1265C31.8819 23.1265 31.057 22.9057 30.3971 22.4641C29.7372 22.0225 29.2423 21.4627 28.9123 20.7849C28.5927 20.0968 28.4329 19.3881 28.4329 18.659ZM30.5827 18.5049C30.5827 19.2854 30.7941 19.9479 31.2169 20.4922C31.6499 21.0365 32.2789 21.3087 33.1038 21.3087C33.8359 21.3087 34.6144 21.093 35.4393 20.6617C36.2745 20.22 37.0272 19.5627 37.6974 18.6898V15.5779C37.1509 15.4957 36.5735 15.4392 35.9651 15.4084C35.3671 15.3673 34.7793 15.3468 34.2019 15.3468C33.0986 15.3468 32.217 15.6241 31.5571 16.1787C30.9075 16.723 30.5827 17.4984 30.5827 18.5049ZM56.6111 19.9068C56.6111 20.3998 56.6317 20.8722 56.6729 21.3241C56.7142 21.7657 56.807 22.156 56.9513 22.4949C56.6111 22.7927 56.1625 22.9417 55.6057 22.9417C54.884 22.9417 54.5231 22.4795 54.5231 21.5552V12.8511C54.5231 11.5981 54.3632 10.6944 54.0436 10.1398C53.7239 9.5749 53.1053 9.29246 52.1876 9.29246C51.3523 9.29246 50.4707 9.52868 49.5427 10.0011C48.625 10.4735 47.862 11.059 47.2536 11.7573V22.7568C46.9855 22.8184 46.6453 22.8492 46.2328 22.8492C45.7894 22.8492 45.4337 22.8184 45.1656 22.7568V7.75192L45.3512 7.56706H46.14C46.6246 7.56706 46.9288 7.69544 47.0526 7.95219C47.1866 8.19868 47.2536 8.553 47.2536 9.01517V9.64679C47.9445 8.96895 48.7694 8.42463 49.7283 8.01381C50.6975 7.59273 51.672 7.38219 52.6516 7.38219C53.6415 7.38219 54.42 7.603 54.9871 8.04462C55.5645 8.47598 55.9769 9.05625 56.2244 9.78544C56.4822 10.5044 56.6111 11.2952 56.6111 12.1579V19.9068ZM64.0789 22.7568C63.8108 22.8184 63.4705 22.8492 63.0581 22.8492C62.6353 22.8492 62.2899 22.8184 62.0218 22.7568V0.295705L62.2074 0.11084H62.9653C63.4499 0.11084 63.7541 0.239218 63.8778 0.495975C64.0119 0.742462 64.0789 1.10192 64.0789 1.57435V14.1298L65.4864 14.0527C65.7338 14.0527 65.9607 13.9244 66.1669 13.6676L69.6005 8.64544C69.8273 8.30652 70.049 8.04462 70.2655 7.85976C70.4821 7.66462 70.8223 7.56706 71.2863 7.56706C71.4823 7.56706 71.6524 7.57219 71.7968 7.58246C71.9411 7.58246 72.1112 7.5876 72.3072 7.59787L72.4927 7.84435L68.4405 13.6676C68.2343 13.9757 68.0126 14.2325 67.7754 14.4379C68.5178 14.5714 69.1159 14.8641 69.5695 15.316C70.0335 15.7679 70.4615 16.4252 70.8533 17.2879L72.0906 20.03C72.3278 20.5538 72.5701 21.0211 72.8175 21.4319C73.065 21.8325 73.3176 22.1252 73.5754 22.31C73.462 22.4744 73.2712 22.6233 73.0031 22.7568C72.7351 22.88 72.4618 22.9417 72.1834 22.9417C71.6988 22.9417 71.3431 22.803 71.1162 22.5257C70.8997 22.2381 70.6831 21.8581 70.4666 21.3857L68.9973 18.1352C68.5951 17.2417 68.1879 16.6306 67.7754 16.3019C67.363 15.9733 66.7031 15.809 65.7957 15.809C65.3626 15.809 64.7904 15.8398 64.0789 15.9014V22.7568ZM88.0012 15.2081C88.0012 16.7281 87.7589 18.0889 87.2742 19.2906C86.7999 20.4819 86.0885 21.4217 85.1398 22.1098C84.1912 22.7876 83.0158 23.1265 81.6134 23.1265C80.2008 23.1265 79.0202 22.7825 78.0716 22.0944C77.1333 21.396 76.427 20.4511 75.9526 19.2598C75.4886 18.0581 75.2566 16.7076 75.2566 15.2081C75.2566 13.6984 75.4938 12.3479 75.9681 11.1565C76.4527 9.96517 77.1642 9.02544 78.1025 8.33733C79.0511 7.63895 80.2214 7.28976 81.6134 7.28976C83.0261 7.28976 84.2067 7.63895 85.1553 8.33733C86.1039 9.02544 86.8154 9.96517 87.2897 11.1565C87.764 12.3479 88.0012 13.6984 88.0012 15.2081ZM77.4374 15.2081C77.4374 16.2352 77.5663 17.2314 77.8241 18.1968C78.0819 19.1519 78.515 19.9376 79.1233 20.5538C79.742 21.1598 80.5823 21.4627 81.6444 21.4627C82.6961 21.4627 83.5262 21.1598 84.1345 20.5538C84.7429 19.9376 85.1759 19.1519 85.4337 18.1968C85.6915 17.2314 85.8204 16.2352 85.8204 15.2081C85.8204 14.1914 85.6915 13.2054 85.4337 12.2503C85.1759 11.2849 84.7429 10.4889 84.1345 9.86246C83.5262 9.23598 82.6961 8.92273 81.6444 8.92273C80.5823 8.92273 79.742 9.23598 79.1233 9.86246C78.515 10.4889 78.0819 11.2849 77.8241 12.2503C77.5663 13.2054 77.4374 14.1914 77.4374 15.2081ZM91.6065 8.63003C91.6683 8.43489 91.7869 8.21922 91.9622 7.983C92.1478 7.74679 92.3489 7.56706 92.5654 7.44381C93.1325 7.66976 93.5862 8.01895 93.9265 8.49138C94.277 8.95354 94.5193 9.51841 94.6534 10.186C95.0246 9.41571 95.5505 8.76868 96.231 8.24489C96.9115 7.71084 97.7725 7.44381 98.8139 7.44381C98.9583 7.44381 99.149 7.45408 99.3862 7.47462C99.6337 7.49516 99.9017 7.52598 100.19 7.56706C100.19 7.90598 100.154 8.25516 100.082 8.61462C100.02 8.97408 99.8966 9.29246 99.711 9.56976C99.546 9.54922 99.3707 9.53895 99.1851 9.53895C99.0098 9.53895 98.8397 9.53895 98.6747 9.53895C97.9736 9.53895 97.3704 9.68787 96.8651 9.98571C96.3702 10.2733 95.9526 10.643 95.6123 11.0949C95.2824 11.5365 95.0143 11.9935 94.8081 12.466V22.7568C94.54 22.8184 94.1997 22.8492 93.7873 22.8492C93.3439 22.8492 92.9881 22.8184 92.7201 22.7568V11.7727C92.7201 11.023 92.6015 10.3811 92.3643 9.84706C92.1375 9.313 91.8849 8.90733 91.6065 8.63003ZM101.869 18.659C101.869 16.9644 102.395 15.7217 103.447 14.9308C104.509 14.14 105.906 13.7446 107.638 13.7446C108.174 13.7446 108.747 13.7703 109.355 13.8217C109.963 13.8627 110.556 13.9346 111.134 14.0373V12.4044C111.134 11.2233 110.871 10.3914 110.345 9.90868C109.829 9.41571 109.138 9.16922 108.272 9.16922C107.416 9.16922 106.561 9.2976 105.705 9.55435C104.849 9.80084 104.009 10.1089 103.184 10.4787C102.988 10.3144 102.813 10.0679 102.658 9.73922C102.503 9.4003 102.426 9.08706 102.426 8.79949C103.179 8.47084 104.091 8.14733 105.163 7.82895C106.236 7.51057 107.319 7.35138 108.412 7.35138C110.03 7.35138 111.226 7.793 112 8.67625C112.773 9.55949 113.16 10.8227 113.16 12.466V18.813C113.16 19.4806 113.206 20.066 113.299 20.5692C113.392 21.0725 113.634 21.5089 114.026 21.8787C113.943 22.0841 113.809 22.2946 113.624 22.5103C113.448 22.7157 113.242 22.8698 113.005 22.9725C112.479 22.7465 112.072 22.4487 111.783 22.0789C111.505 21.6989 111.319 21.2522 111.226 20.7387C110.649 21.3035 109.943 21.8427 109.107 22.3562C108.283 22.8698 107.349 23.1265 106.308 23.1265C105.318 23.1265 104.493 22.9057 103.833 22.4641C103.173 22.0225 102.679 21.4627 102.349 20.7849C102.029 20.0968 101.869 19.3881 101.869 18.659ZM104.019 18.5049C104.019 19.2854 104.23 19.9479 104.653 20.4922C105.086 21.0365 105.715 21.3087 106.54 21.3087C107.272 21.3087 108.051 21.093 108.876 20.6617C109.711 20.22 110.463 19.5627 111.134 18.6898V15.5779C110.587 15.4957 110.01 15.4392 109.401 15.4084C108.803 15.3673 108.216 15.3468 107.638 15.3468C106.535 15.3468 105.653 15.6241 104.993 16.1787C104.344 16.723 104.019 17.4984 104.019 18.5049Z" fill="#282828"/>
<path d="M3.64668 1.0135C1.85809 1.00747 0.40324 2.44678 0.397184 4.22828C0.391127 6.00979 1.83616 7.45888 3.62475 7.46491C5.41334 7.47094 6.86819 6.03163 6.87425 4.25013C6.8803 2.46862 5.43527 1.01953 3.64668 1.0135Z" stroke="#282828" stroke-width="0.5"/>
<path d="M3.6433 1.96405C2.38173 1.95979 1.35556 2.975 1.35128 4.23158C1.34701 5.48815 2.36626 6.51026 3.62783 6.51451C4.8894 6.51877 5.91557 5.50356 5.91984 4.24698C5.92412 2.99041 4.90487 1.9683 3.6433 1.96405Z" stroke="#282828" stroke-width="0.5"/>
<path d="M18.898 10.2101C18.9018 9.07116 19.8319 8.15095 20.9754 8.1548C22.1189 8.1587 23.0428 9.08513 23.0389 10.2241C23.035 11.363 22.1049 12.2832 20.9614 12.2794C19.8179 12.2755 18.894 11.3491 18.898 10.2101Z" stroke="#282828" stroke-width="0.5"/>
<path fill-rule="evenodd" clip-rule="evenodd" d="M7.6266 21.562C7.62263 21.6239 7.62056 21.6862 7.62036 21.7491C7.61453 23.4494 8.99375 24.8325 10.7009 24.8383C12.408 24.844 13.7966 23.4703 13.8024 21.7699C13.8026 21.7063 13.8008 21.6431 13.7972 21.5805C17.8485 20.3802 20.8969 16.8531 21.3745 12.5503C21.2399 12.5734 21.1016 12.5852 20.9604 12.5847C20.924 12.5846 20.8878 12.5837 20.8518 12.582C20.3687 16.611 17.5151 19.9114 13.7237 21.0661C13.4088 19.7037 12.1859 18.6857 10.7218 18.6808C9.25694 18.6758 8.02661 19.6867 7.70326 21.048C3.55216 19.7566 0.545776 15.8905 0.561268 11.3321C0.566419 9.81622 0.905211 8.37921 1.50814 7.08972C1.36468 6.98332 1.22953 6.86645 1.10384 6.74023C0.430831 8.12887 0.0513072 9.68543 0.0457169 11.3303C0.0293445 16.1477 3.22539 20.2293 7.6266 21.562ZM6.51171 2.13961C7.81034 1.54783 9.25534 1.22011 10.7772 1.22525C15.1795 1.24009 18.9198 4.03565 20.3272 7.93646C20.493 7.89029 20.6661 7.86159 20.8444 7.85245C19.3911 3.70742 15.4379 0.727445 10.779 0.711732C9.12753 0.706186 7.56225 1.07366 6.16355 1.73455C6.2894 1.86062 6.40586 1.99603 6.51171 2.13961Z" fill="#282828"/>
</svg>
